<svg width="176" height="64" viewBox="0 0 176 64" fill="none" xmlns="http://www.w3.org/2000/svg">
<path d="M0.793001 59.4959C-0.0877423 60.1625 -0.261334 61.4169 0.405273 62.2977C1.07188 63.1784 2.32626 63.352 3.207 62.6854L0.793001 59.4959ZM174 40.2732L173.228 42.118C174.083 42.4762 175.073 42.1992 175.618 41.4487C176.163 40.6983 176.121 39.6715 175.516 38.9685L174 40.2732ZM147.065 0.906423C146.461 -0.0184009 145.221 -0.278507 144.297 0.325459C143.372 0.929425 143.112 2.16875 143.716 3.09358L147.065 0.906423ZM126.305 28.3007C125.218 28.4952 124.494 29.5344 124.689 30.6217C124.883 31.709 125.922 32.4327 127.01 32.2381L126.305 28.3007ZM3.207 62.6854C4.08307 62.0223 4.82741 60.9816 5.46834 59.8892C6.13614 58.7511 6.80691 57.3523 7.47643 55.7864C8.81628 52.6528 10.2225 48.6796 11.6461 44.4198C14.5193 35.8219 17.4637 26.0685 20.2275 18.9509C21.6198 15.3653 22.8851 12.6718 23.9689 11.1761C24.5423 10.3847 24.846 10.243 24.8252 10.2505C24.7512 10.2771 24.581 10.3064 24.3882 10.2459C24.2213 10.1936 24.1925 10.1218 24.2781 10.2188C24.4912 10.4603 24.8683 11.1166 25.2829 12.53C25.682 13.8906 26.0633 15.7629 26.4093 18.242C27.1008 23.1963 27.6253 30.379 27.9296 40.3343L31.9278 40.2121C31.6218 30.203 31.0918 22.8541 30.3709 17.6891C30.0108 15.1086 29.5965 13.0245 29.1212 11.4041C28.6614 9.8367 28.0853 8.48774 27.2773 7.57212C26.8523 7.09051 26.2959 6.65223 25.5858 6.42941C24.8498 6.19846 24.1207 6.25346 23.4736 6.48579C22.3064 6.90483 21.4064 7.89536 20.7298 8.82915C19.3134 10.784 17.8925 13.9134 16.4987 17.503C13.6903 24.7357 10.6628 34.7418 7.85228 43.152C6.43396 47.3962 5.0704 51.2392 3.79852 54.2139C3.16217 55.7022 2.5666 56.9306 2.01832 57.865C1.44318 58.8453 1.02172 59.3228 0.793001 59.4959L3.207 62.6854ZM27.9296 40.3343C28.0833 45.3588 28.3644 49.4359 28.7902 52.6712C29.2121 55.877 29.7915 58.3868 30.6052 60.2002C31.4123 61.999 32.6413 63.5109 34.5536 63.9059C36.3593 64.2789 38.0917 63.4955 39.5323 62.5279C42.4318 60.5804 45.9184 56.6404 49.8675 52.1306C53.9072 47.5173 58.6175 42.0734 64.1304 36.7357C75.1678 26.0493 89.2001 16.0135 106.877 14.2068C124.493 12.4065 146.197 18.7364 172.687 41.7821L175.313 38.7642C148.282 15.2488 125.522 8.28043 106.471 10.2276C87.4807 12.1684 72.6431 22.926 61.3481 33.862C55.6948 39.3355 50.8734 44.9101 46.8582 49.4954C42.7523 54.1843 39.6609 57.623 37.302 59.2074C36.1134 60.0057 35.5464 60.0265 35.3629 59.9886C35.286 59.9727 34.836 59.8585 34.2546 58.5627C33.6798 57.2817 33.1612 55.2283 32.756 52.1492C32.3546 49.0995 32.0794 45.1698 31.9278 40.2121L27.9296 40.3343ZM175.516 38.9685C168.078 30.3266 160.965 20.8122 155.703 13.4448C153.074 9.76408 150.912 6.6257 149.408 4.40883C148.656 3.3005 148.069 2.42282 147.67 1.82322C147.471 1.52342 147.319 1.29317 147.217 1.13839C147.166 1.06099 147.128 1.00248 147.102 0.963567C147.089 0.944113 147.08 0.929562 147.074 0.920007C147.07 0.91523 147.068 0.911701 147.067 0.909433C147.066 0.908299 147.065 0.90748 147.065 0.906978C147.065 0.906727 147.065 0.906588 147.065 0.906463C147.065 0.906403 147.065 0.906423 145.39 2C143.716 3.09358 143.716 3.09376 143.716 3.09401C143.716 3.09421 143.716 3.09454 143.716 3.09493C143.717 3.0957 143.718 3.09678 143.719 3.09818C143.72 3.10099 143.723 3.10505 143.727 3.11037C143.733 3.121 143.744 3.13664 143.757 3.15718C143.784 3.19828 143.824 3.25903 143.877 3.33868C143.981 3.49799 144.137 3.73293 144.339 4.03758C144.744 4.64684 145.338 5.53499 146.098 6.65448C147.617 8.89324 149.797 12.0584 152.448 15.7696C157.744 23.1858 164.936 32.8079 172.484 41.5778L175.516 38.9685ZM174.772 38.4283C156.936 30.9602 146.05 24.7676 126.305 28.3007L127.01 32.2381C145.363 28.9539 155.069 34.5149 173.228 42.118L174.772 38.4283Z" fill="black"/>
</svg>
