<svg width="305" height="335" viewBox="0 0 305 335" fill="none" xmlns="http://www.w3.org/2000/svg">
<path d="M111.647 132.349C47.1101 165.567 29.3816 97.8608 63.0274 91.137C96.6733 84.4133 115.267 95.6178 111.647 132.349Z" stroke="black" stroke-width="12"/>
<path d="M164.74 132.633C229.277 165.852 247.005 98.1452 213.359 91.4215C179.713 84.6978 161.12 95.9023 164.74 132.633Z" stroke="black" stroke-width="12"/>
<path d="M264.506 80.3617C192.506 -56.4383 77.1728 26.3617 28.5061 84.8617C17.6728 95.3617 -1.3939 142.762 9.0061 248.362C19.4061 353.962 166.339 333.362 238.506 309.862C277.173 290.362 336.506 217.162 264.506 80.3617Z" stroke="black" stroke-width="12"/>
<path d="M47 204.5C125 244.9 186.167 221.333 207 204.5" stroke="black" stroke-width="12"/>
<path d="M70 115.804C74 126.204 80.3333 121.804 83 118.304C82 112.637 78 104.204 70 115.804Z" stroke="black" stroke-width="12"/>
<path d="M188 115.804C192 126.204 198.333 121.804 201 118.304C200 112.637 196 104.204 188 115.804Z" stroke="black" stroke-width="12"/>
</svg>
